<?xml version="1.0" encoding="UTF-8"?>
<svg width="118px" height="57px" viewBox="0 0 118 57" version="1.1" xmlns="http://www.w3.org/2000/svg" xmlns:xlink="http://www.w3.org/1999/xlink">
    <!-- Generator: Sketch 60.1 (88133) - https://sketch.com -->
    <title>Group 3 Copy</title>
    <desc>Created with Sketch.</desc>
    <g id="Page-1" stroke="none" stroke-width="1" fill="none" fill-rule="evenodd">
        <g id="Splash-Screen" transform="translate(-1221.000000, -772.000000)" fill="#FFFFFF" fill-rule="nonzero">
            <g id="Group-3-Copy" transform="translate(1221.000000, 772.000000)">
                <path d="M55.286352,1.42108547e-14 L64.466864,37.7763076 C65.334192,41.424592 66.263472,45.947088 66.263472,45.947088 L66.420288,45.947088 L67.1548241,42.7586399 C67.6235321,40.7672688 68.2407172,38.2256045 68.772528,36.302904 L78.88716,1.42108547e-14 L86.492736,1.42108547e-14 L96.4279002,36.8051547 C97.4197579,40.5667281 98.567568,45.947088 98.567568,45.947088 L98.724384,45.947088 L99.9024598,40.7333066 C100.247009,39.2401258 100.613146,37.6863696 100.919808,36.45972 L110.25036,1.42108547e-14 L117.385488,1.42108547e-14 L101.782296,56.06172 L95.039208,56.06172 L84.5831654,15.8286528 C83.746887,12.543499 82.729152,7.997616 82.729152,7.997616 L82.572336,7.997616 L81.8951902,10.9162581 C81.4796703,12.6612594 80.9367087,14.8592277 80.45532,16.544088 L69.4782,56.06172 L62.42148,56.06172 L52.2922459,16.9135991 L51.001,10.545 L50.2306639,13.3030801 C49.7619559,15.2944512 49.1447708,17.8361155 48.61296,19.758816 L38.498328,56.06172 L30.892752,56.06172 L20.9575878,19.2565653 C19.9657301,15.4949919 18.81792,10.114632 18.81792,10.114632 L18.661104,10.114632 C17.4019296,15.6217776 16.6701216,18.7842336 16.46568,19.602 L7.135128,56.06172 L-3.32534e-12,56.06172 L15.603192,2.13162821e-14 L22.34628,2.13162821e-14 L32.8023226,40.2330672 C33.638601,43.518221 34.656336,48.064104 34.656336,48.064104 L34.813152,48.064104 L35.4902978,45.1454619 C35.9058177,43.4004606 36.4487793,41.2024923 36.930168,39.517632 L47.907288,1.42108547e-14 L55.286352,1.42108547e-14 Z" id="Combined-Shape"></path>
            </g>
        </g>
    </g>
</svg>