<?xml version="1.0" encoding="UTF-8"?>
<svg width="64px" height="18px" viewBox="0 0 64 18" version="1.1" xmlns="http://www.w3.org/2000/svg" xmlns:xlink="http://www.w3.org/1999/xlink">
    <!-- Generator: Sketch 62 (91390) - https://sketch.com -->
    <title>Group</title>
    <desc>Created with Sketch.</desc>
    <g id="Page-1" stroke="none" stroke-width="1" fill="none" fill-rule="evenodd">
        <g id="Portfolio-Marius-1440x960-Copy-24" transform="translate(-1536.000000, -80.000000)" fill="#FFFFFF" fill-rule="nonzero">
            <g id="Group" transform="translate(1536.000000, 80.000000)">
                <path d="M44.4859056,-9.59232693e-14 L47.2400592,11.3328923 C47.5002576,12.4273776 47.7790416,13.7841264 47.7790416,13.7841264 L47.8260864,13.7841264 L48.0464472,12.827592 C48.1870596,12.2301806 48.3722152,11.4676814 48.5317584,10.8908712 L51.566148,-9.59232693e-14 L53.8478208,-9.59232693e-14 L56.8283701,11.0415464 C57.1259274,12.1700184 57.4702704,13.7841264 57.4702704,13.7841264 L57.5173152,13.7841264 L57.8707379,12.219992 C57.9741028,11.7720377 58.0839437,11.3059109 58.1759424,10.937916 L60.975108,-9.59232693e-14 L63.1156464,-9.59232693e-14 L58.4346888,16.818516 L56.4117624,16.818516 L53.2749496,4.74859585 C53.0240661,3.76304969 52.7187456,2.3992848 52.7187456,2.3992848 L52.6717008,2.3992848 L52.468557,3.27487742 C52.3439011,3.79837782 52.1810126,4.45776832 52.036596,4.9632264 L48.74346,16.818516 L46.626444,16.818516 L43.5876738,5.07407973 L43.2,3.163 L42.9691992,3.99092402 C42.8285868,4.58833537 42.6434312,5.35083464 42.483888,5.9276448 L39.4494984,16.818516 L37.1678256,16.818516 L34.1872763,5.77696959 C33.889719,4.64849758 33.545376,3.0343896 33.545376,3.0343896 L33.4983312,3.0343896 C33.1205789,4.68653328 32.9010365,5.63527008 32.839704,5.8806 L30.0405384,16.818516 L27.9,16.818516 L32.5809576,-9.59232693e-14 L34.603884,-9.59232693e-14 L37.7406968,12.0699201 C37.9915803,13.0554663 38.2969008,14.4192312 38.2969008,14.4192312 L38.3439456,14.4192312 L38.5470894,13.5436386 C38.6717453,13.0201382 38.8346338,12.3607477 38.9790504,11.8552896 L42.2721864,-9.59232693e-14 L44.4859056,-9.59232693e-14 Z" id="Combined-Shape"></path>
                <path d="M5.184,16.8 L8.24,9.008 L6.288,9.008 L4.272,14.576 L2.208,9.008 L0.16,9.008 L3.328,16.8 L5.184,16.8 Z M13.024,17.04 C15.36,17.04 17.072,15.296 17.072,12.896 C17.072,10.512 15.36,8.768 13.024,8.768 C10.704,8.768 8.992,10.512 8.992,12.896 C8.992,15.296 10.704,17.04 13.024,17.04 Z M13.024,15.376 C11.888,15.376 10.848,14.512 10.848,12.896 C10.848,11.28 11.888,10.448 13.024,10.448 C14.176,10.448 15.2,11.28 15.2,12.896 C15.2,14.528 14.176,15.376 13.024,15.376 Z M20.72,16.8 L20.72,12.304 C20.72,11.28 21.28,10.464 22.336,10.464 C23.504,10.464 23.936,11.232 23.936,12.192 L23.936,16.8 L25.792,16.8 L25.792,11.872 C25.792,10.16 24.88,8.784 22.976,8.784 C22.112,8.784 21.184,9.152 20.672,10.048 L20.672,9.008 L18.864,9.008 L18.864,16.8 L20.72,16.8 Z" id="von"></path>
            </g>
        </g>
    </g>
</svg>