<svg width="29" height="227" viewBox="0 0 29 227" fill="none" xmlns="http://www.w3.org/2000/svg">
<path d="M5.6 146.72H0L0 152.72H5.6V146.72Z" fill="white"/>
<path d="M5.70001 42.8H0.100006L0.100006 48.8H5.70001V42.8Z" fill="white"/>
<path d="M28.4 221.72H8.67999L28.4 213.56V208.96L8.51999 200.8H28.4L28.4 195.36H0.0399933L0.0399933 202.88L20.52 211.2L0.0399933 219.72L0.0399933 227H28.4V221.72Z" fill="white"/>
<path d="M8.12 181.64C8.12 175.4 11.64 173.08 15.6 173.08H25.28C26.32 173.08 27.72 172.96 28.4 172.84V177.72C27.88 177.84 26.8 177.92 26.04 177.92C27.6 178.92 28.96 180.8 28.96 183.72C28.96 187.92 26.12 190.48 23.04 190.48C19.52 190.48 17.56 187.88 17.08 184.6L16.36 179.76C16.2 178.64 15.64 178.28 14.96 178.28C13.56 178.28 12.4 179.36 12.4 181.6C12.4 183.92 13.88 185.2 15.6 185.36L14.6 190.08C11.52 189.76 8.12 186.92 8.12 181.64ZM19.56 178.28L20.24 182.72C20.44 184.08 21.2 185.16 22.72 185.16C23.88 185.16 25 184.32 25 182.6C25 180.36 23.92 178.28 20.44 178.28H19.56Z" fill="white"/>
<path d="M28.4 162.4H14V155.72H8.72C8.69333 155.987 8.69333 158.267 8.72 162.56V167.72H28.4V162.4Z" fill="white"/>
<path d="M28.4 146.76H8.72V152.08H28.4V146.76Z" fill="white"/>
<path d="M28.92 133.8C28.92 131.72 28.12 129.44 26.28 128.36C27.08 128.36 28 128.28 28.4 128.2V123.12C27.72 123.2 26.36 123.32 24.84 123.32H8.72L8.72 128.64H20.16C22.44 128.64 24.04 130 24.04 132.36C24.04 134.84 22.28 135.96 20.08 135.96H8.72V141.28H21.16C25.44 141.28 28.92 138.56 28.92 133.8Z" fill="white"/>
<path d="M29 111.12C29 105.96 25.72 103.48 22.52 103.48C19.64 103.48 17.28 105.44 16.48 109.32L15.88 112.12C15.68 113.2 15.08 113.92 14.12 113.92C13 113.92 12.16 112.8 12.16 111.4C12.16 109.16 13.64 108.32 14.8 108.16L13.8 103.72C11.68 103.96 8.12 105.84 8.12 111.44C8.12 115.68 11.04 118.8 14.56 118.8C17.32 118.8 19.6 117.08 20.44 113.28L21.04 110.68C21.36 109.16 22.08 108.56 22.96 108.56C24 108.56 24.92 109.4 24.92 111.16C24.92 113.48 23.48 114.64 21.92 114.76L22.92 119.32C25.16 119.08 29 117.04 29 111.12Z" fill="white"/>
<path d="M28.4 78.04L8.19999 71.56L28.4 65.08L28.4 59.4L0.0399933 51.56L0.0399933 57.2L19.64 62.32L0.0399933 68.64L0.0399933 74.36L19.56 80.64L0.0399933 85.84L0.0399933 91.68L28.4 83.8V78.04Z" fill="white"/>
<path d="M28.4 42.92H8.72V48.24H28.4V42.92Z" fill="white"/>
<path d="M8.12 29.04C8.12 22.96 12 19.32 18.32 19.32C19.08 19.32 19.88 19.4 19.96 19.4V33.48C22.56 33.36 24.44 31.16 24.44 28.52C24.44 26.04 23.2 24.68 21.44 24.04L22.76 19.6C26.16 20.6 29 23.72 29 28.56C29 33.96 25.12 38.72 18.48 38.72C12.2 38.72 8.12 34.08 8.12 29.04ZM12.44 28.96C12.44 31.72 14.52 33.24 16.32 33.36V24.56C14.36 24.64 12.44 25.92 12.44 28.96Z" fill="white"/>
<path d="M29 8.60001C29 3.44001 25.72 0.960007 22.52 0.960007C19.64 0.960007 17.28 2.92 16.48 6.8L15.88 9.60001C15.68 10.68 15.08 11.4 14.12 11.4C13 11.4 12.16 10.28 12.16 8.88C12.16 6.64 13.64 5.8 14.8 5.64L13.8 1.2C11.68 1.44 8.12 3.32 8.12 8.92C8.12 13.16 11.04 16.28 14.56 16.28C17.32 16.28 19.6 14.56 20.44 10.76L21.04 8.16C21.36 6.64 22.08 6.03999 22.96 6.03999C24 6.03999 24.92 6.88 24.92 8.64C24.92 10.96 23.48 12.12 21.92 12.24L22.92 16.8C25.16 16.56 29 14.52 29 8.60001Z" fill="white"/>
</svg>
