<?xml version="1.0" encoding="UTF-8"?>
<svg width="29px" height="227px" viewBox="0 0 29 227" version="1.1" xmlns="http://www.w3.org/2000/svg" xmlns:xlink="http://www.w3.org/1999/xlink">
    <!-- Generator: Sketch 62 (91390) - https://sketch.com -->
    <title>Group 2 Copy</title>
    <desc>Created with Sketch.</desc>
    <g id="Page-1" stroke="none" stroke-width="1" fill="none" fill-rule="evenodd">
        <g id="Portfolio-Marius-1440x960-Copy-23" transform="translate(-1132.000000, -310.000000)" fill="#000000" fill-rule="nonzero">
            <g id="Group-2-Copy" transform="translate(1146.500000, 423.500000) rotate(-90.000000) translate(-1146.500000, -423.500000) translate(1033.000000, 409.000000)">
                <polygon id="Path" points="80.28 5.6 80.28 3.63797881e-12 74.28 3.63797881e-12 74.28 5.6"></polygon>
                <polygon id="Path" points="184.2 5.7 184.2 0.1 178.2 0.1 178.2 5.7"></polygon>
                <polygon id="Path" points="5.28 28.4 5.28 8.68 13.44 28.4 18.04 28.4 26.2 8.52 26.2 28.4 31.64 28.4 31.64 0.04 24.12 0.04 15.8 20.52 7.28 0.04 -4.54747351e-13 0.04 -4.54747351e-13 28.4"></polygon>
                <path d="M45.36,8.12 C51.6,8.12 53.92,11.64 53.92,15.6 L53.92,15.6 L53.92,25.28 C53.92,26.32 54.04,27.72 54.16,28.4 L54.16,28.4 L49.28,28.4 C49.16,27.88 49.08,26.8 49.08,26.04 C48.08,27.6 46.2,28.96 43.28,28.96 C39.08,28.96 36.52,26.12 36.52,23.04 C36.52,19.52 39.12,17.56 42.4,17.08 L42.4,17.08 L47.24,16.36 C48.36,16.2 48.72,15.64 48.72,14.96 C48.72,13.56 47.64,12.4 45.4,12.4 C43.08,12.4 41.8,13.88 41.64,15.6 L41.64,15.6 L36.92,14.6 C37.24,11.52 40.08,8.12 45.36,8.12 Z M48.72,19.56 L44.28,20.24 C42.92,20.44 41.84,21.2 41.84,22.72 C41.84,23.88 42.68,25 44.4,25 C46.64,25 48.72,23.92 48.72,20.44 L48.72,20.44 L48.72,19.56 Z" id="Combined-Shape"></path>
                <path d="M64.6,28.4 L64.6,14 L71.28,14 L71.28,8.72 C71.0133333,8.69333333 68.7333333,8.69333333 64.44,8.72 L59.28,8.72 L59.28,28.4 L64.6,28.4 Z" id="Path"></path>
                <polygon id="Path" points="80.24 28.4 80.24 8.72 74.92 8.72 74.92 28.4"></polygon>
                <path d="M93.2,28.92 C95.28,28.92 97.56,28.12 98.64,26.28 C98.64,27.08 98.72,28 98.8,28.4 L103.88,28.4 C103.8,27.72 103.68,26.36 103.68,24.84 L103.68,8.72 L98.36,8.72 L98.36,20.16 C98.36,22.44 97,24.04 94.64,24.04 C92.16,24.04 91.04,22.28 91.04,20.08 L91.04,8.72 L85.72,8.72 L85.72,21.16 C85.72,25.44 88.44,28.92 93.2,28.92 Z" id="Path"></path>
                <path d="M115.88,29 C121.04,29 123.52,25.72 123.52,22.52 C123.52,19.64 121.56,17.28 117.68,16.48 L114.88,15.88 C113.8,15.68 113.08,15.08 113.08,14.12 C113.08,13 114.2,12.16 115.6,12.16 C117.84,12.16 118.68,13.64 118.84,14.8 L123.28,13.8 C123.04,11.68 121.16,8.12 115.56,8.12 C111.32,8.12 108.2,11.04 108.2,14.56 C108.2,17.32 109.92,19.6 113.72,20.44 L116.32,21.04 C117.84,21.36 118.44,22.08 118.44,22.96 C118.44,24 117.6,24.92 115.84,24.92 C113.52,24.92 112.36,23.48 112.24,21.92 L107.68,22.92 C107.92,25.16 109.96,29 115.88,29 Z" id="Path"></path>
                <polygon id="Path" points="148.96 28.4 155.44 8.2 161.92 28.4 167.6 28.4 175.44 0.04 169.8 0.04 164.68 19.64 158.36 0.04 152.64 0.04 146.36 19.56 141.16 0.04 135.32 0.04 143.2 28.4"></polygon>
                <polygon id="Path" points="184.08 28.4 184.08 8.72 178.76 8.72 178.76 28.4"></polygon>
                <path d="M197.96,8.12 C204.04,8.12 207.68,12 207.68,18.32 C207.68,19.08 207.6,19.88 207.6,19.96 L207.6,19.96 L193.52,19.96 C193.64,22.56 195.84,24.44 198.48,24.44 C200.96,24.44 202.32,23.2 202.96,21.44 L202.96,21.44 L207.4,22.76 C206.4,26.16 203.28,29 198.44,29 C193.04,29 188.28,25.12 188.28,18.48 C188.28,12.2 192.92,8.12 197.96,8.12 Z M198.04,12.44 C195.28,12.44 193.76,14.52 193.64,16.32 L193.64,16.32 L202.44,16.32 C202.36,14.36 201.08,12.44 198.04,12.44 Z" id="Combined-Shape"></path>
                <path d="M218.4,29 C223.56,29 226.04,25.72 226.04,22.52 C226.04,19.64 224.08,17.28 220.2,16.48 L217.4,15.88 C216.32,15.68 215.6,15.08 215.6,14.12 C215.6,13 216.72,12.16 218.12,12.16 C220.36,12.16 221.2,13.64 221.36,14.8 L225.8,13.8 C225.56,11.68 223.68,8.12 218.08,8.12 C213.84,8.12 210.72,11.04 210.72,14.56 C210.72,17.32 212.44,19.6 216.24,20.44 L218.84,21.04 C220.36,21.36 220.96,22.08 220.96,22.96 C220.96,24 220.12,24.92 218.36,24.92 C216.04,24.92 214.88,23.48 214.76,21.92 L210.2,22.92 C210.44,25.16 212.48,29 218.4,29 Z" id="Path"></path>
            </g>
        </g>
    </g>
</svg>